<svg width="1128" height="76" viewBox="0 0 1128 76" fill="none" xmlns="http://www.w3.org/2000/svg">
<path d="M0.531428 74V1.27273H25.1053C30.8108 1.27273 35.4746 2.30255 39.0968 4.36221C42.7426 6.3982 45.4415 9.15625 47.1934 12.6364C48.9453 16.1165 49.8212 19.9991 49.8212 24.2841C49.8212 28.5691 48.9453 32.4635 47.1934 35.9673C45.4651 39.4711 42.79 42.2647 39.1678 44.348C35.5456 46.4077 30.9055 47.4375 25.2473 47.4375H7.6337V39.625H24.9632C28.8695 39.625 32.0063 38.9503 34.3738 37.6009C36.7412 36.2514 38.4576 34.4285 39.5229 32.1321C40.6119 29.812 41.1564 27.196 41.1564 24.2841C41.1564 21.3722 40.6119 18.768 39.5229 16.4716C38.4576 14.1752 36.7293 12.3759 34.3382 11.0739C31.9471 9.7481 28.7748 9.08523 24.8212 9.08523H9.33825V74H0.531428ZM62.8716 74V19.4545H70.9682V27.6932H71.5364C72.5307 24.9943 74.33 22.8045 76.9341 21.1236C79.5383 19.4427 82.4739 18.6023 85.7409 18.6023C86.3565 18.6023 87.1259 18.6141 88.0492 18.6378C88.9725 18.6615 89.6709 18.697 90.1444 18.7443V27.267C89.8603 27.196 89.2092 27.0895 88.1912 26.9474C87.1969 26.7817 86.1434 26.6989 85.0307 26.6989C82.3792 26.6989 80.0118 27.2552 77.9284 28.3679C75.8688 29.4569 74.2353 30.9721 73.0279 32.9134C71.8442 34.831 71.2523 37.0208 71.2523 39.483V74H62.8716ZM121.288 75.1364C116.032 75.1364 111.499 73.9763 107.687 71.6562C103.899 69.3125 100.975 66.0455 98.9157 61.8551C96.8797 57.6411 95.8617 52.7405 95.8617 47.1534C95.8617 41.5663 96.8797 36.642 98.9157 32.3807C100.975 28.0956 103.84 24.7576 107.509 22.3665C111.203 19.9517 115.511 18.7443 120.436 18.7443C123.276 18.7443 126.082 19.2178 128.852 20.1648C131.622 21.1117 134.143 22.6506 136.416 24.7812C138.688 26.8883 140.499 29.6818 141.849 33.1619C143.198 36.642 143.873 40.9271 143.873 46.017V49.5682H101.828V42.3239H135.35C135.35 39.2462 134.735 36.5 133.504 34.0852C132.296 31.6705 130.568 29.7647 128.319 28.3679C126.094 26.9711 123.466 26.2727 120.436 26.2727C117.097 26.2727 114.209 27.1013 111.771 28.7585C109.356 30.392 107.498 32.5227 106.195 35.1506C104.893 37.7784 104.242 40.5956 104.242 43.6023V48.4318C104.242 52.5511 104.953 56.0431 106.373 58.9077C107.817 61.7486 109.818 63.9148 112.374 65.4062C114.931 66.8741 117.902 67.608 121.288 67.608C123.49 67.608 125.478 67.3002 127.254 66.6847C129.053 66.0455 130.604 65.0985 131.906 63.8438C133.208 62.5653 134.214 60.9792 134.924 59.0852L143.021 61.358C142.169 64.1042 140.736 66.5189 138.724 68.6023C136.712 70.6619 134.226 72.2718 131.267 73.4318C128.307 74.5682 124.981 75.1364 121.288 75.1364ZM195.258 31.6705L187.73 33.8011C187.256 32.5464 186.558 31.3272 185.634 30.1435C184.735 28.9361 183.504 27.9418 181.941 27.1605C180.379 26.3793 178.378 25.9886 175.94 25.9886C172.602 25.9886 169.82 26.758 167.595 28.2969C165.393 29.812 164.292 31.7415 164.292 34.0852C164.292 36.1686 165.05 37.8139 166.565 39.0213C168.08 40.2287 170.447 41.2348 173.667 42.0398L181.764 44.0284C186.641 45.2121 190.275 47.0232 192.666 49.4616C195.057 51.8764 196.252 54.9896 196.252 58.8011C196.252 61.9261 195.353 64.7197 193.553 67.1818C191.778 69.6439 189.292 71.5852 186.096 73.0057C182.9 74.4261 179.183 75.1364 174.945 75.1364C169.382 75.1364 164.777 73.929 161.132 71.5142C157.486 69.0994 155.177 65.572 154.207 60.9318L162.161 58.9432C162.919 61.8788 164.351 64.0805 166.458 65.5483C168.589 67.0161 171.371 67.75 174.803 67.75C178.71 67.75 181.811 66.9214 184.107 65.2642C186.427 63.5833 187.588 61.571 187.588 59.2273C187.588 57.3333 186.925 55.7472 185.599 54.4688C184.273 53.1667 182.237 52.196 179.491 51.5568L170.4 49.4261C165.405 48.2424 161.735 46.4077 159.392 43.9219C157.071 41.4124 155.911 38.2756 155.911 34.5114C155.911 31.4337 156.776 28.7112 158.504 26.3438C160.256 23.9763 162.635 22.1179 165.642 20.7685C168.672 19.419 172.105 18.7443 175.94 18.7443C181.338 18.7443 185.575 19.928 188.653 22.2955C191.754 24.6629 193.956 27.7879 195.258 31.6705ZM247.504 31.6705L239.976 33.8011C239.502 32.5464 238.804 31.3272 237.881 30.1435C236.981 28.9361 235.75 27.9418 234.187 27.1605C232.625 26.3793 230.624 25.9886 228.186 25.9886C224.848 25.9886 222.066 26.758 219.841 28.2969C217.639 29.812 216.538 31.7415 216.538 34.0852C216.538 36.1686 217.296 37.8139 218.811 39.0213C220.326 40.2287 222.693 41.2348 225.913 42.0398L234.01 44.0284C238.887 45.2121 242.521 47.0232 244.912 49.4616C247.303 51.8764 248.498 54.9896 248.498 58.8011C248.498 61.9261 247.599 64.7197 245.8 67.1818C244.024 69.6439 241.538 71.5852 238.342 73.0057C235.146 74.4261 231.429 75.1364 227.192 75.1364C221.628 75.1364 217.023 73.929 213.378 71.5142C209.732 69.0994 207.424 65.572 206.453 60.9318L214.407 58.9432C215.165 61.8788 216.597 64.0805 218.704 65.5483C220.835 67.0161 223.617 67.75 227.05 67.75C230.956 67.75 234.057 66.9214 236.354 65.2642C238.674 63.5833 239.834 61.571 239.834 59.2273C239.834 57.3333 239.171 55.7472 237.845 54.4688C236.519 53.1667 234.483 52.196 231.737 51.5568L222.646 49.4261C217.651 48.2424 213.981 46.4077 211.638 43.9219C209.318 41.4124 208.157 38.2756 208.157 34.5114C208.157 31.4337 209.022 28.7112 210.75 26.3438C212.502 23.9763 214.881 22.1179 217.888 20.7685C220.918 19.419 224.351 18.7443 228.186 18.7443C233.584 18.7443 237.821 19.928 240.899 22.2955C244 24.6629 246.202 27.7879 247.504 31.6705ZM330.148 19.4545C329.722 15.8561 327.994 13.0625 324.963 11.0739C321.933 9.08523 318.216 8.09091 313.813 8.09091C310.593 8.09091 307.776 8.61174 305.361 9.65341C302.97 10.6951 301.1 12.1274 299.75 13.9503C298.424 15.7732 297.762 17.8447 297.762 20.1648C297.762 22.1061 298.223 23.7751 299.146 25.1719C300.093 26.545 301.301 27.6932 302.769 28.6165C304.236 29.5161 305.775 30.2618 307.385 30.8537C308.995 31.4219 310.475 31.8835 311.824 32.2386L319.21 34.2273C321.104 34.7244 323.211 35.411 325.531 36.2869C327.875 37.1629 330.112 38.3584 332.243 39.8736C334.397 41.3651 336.173 43.2827 337.57 45.6264C338.967 47.9702 339.665 50.8466 339.665 54.2557C339.665 58.1856 338.635 61.7367 336.575 64.9091C334.539 68.0814 331.557 70.6027 327.627 72.473C323.72 74.3433 318.974 75.2784 313.387 75.2784C308.178 75.2784 303.668 74.438 299.857 72.7571C296.069 71.0762 293.086 68.7325 290.908 65.7259C288.753 62.7192 287.534 59.2273 287.25 55.25H296.341C296.578 57.9962 297.501 60.2689 299.111 62.0682C300.744 63.8437 302.804 65.1695 305.29 66.0455C307.799 66.8977 310.498 67.3239 313.387 67.3239C316.748 67.3239 319.767 66.7794 322.442 65.6903C325.117 64.5777 327.236 63.0388 328.798 61.0739C330.361 59.0852 331.142 56.7652 331.142 54.1136C331.142 51.6989 330.468 49.7339 329.118 48.2188C327.769 46.7036 325.993 45.4725 323.791 44.5256C321.59 43.5786 319.21 42.75 316.654 42.0398L307.705 39.483C302.023 37.8494 297.525 35.5175 294.21 32.4872C290.896 29.4569 289.239 25.4915 289.239 20.5909C289.239 16.5189 290.34 12.9678 292.541 9.9375C294.767 6.88352 297.75 4.5161 301.49 2.83523C305.254 1.13068 309.457 0.278406 314.097 0.278406C318.784 0.278406 322.951 1.11884 326.597 2.79971C330.243 4.45691 333.131 6.72964 335.262 9.61789C337.416 12.5062 338.552 15.785 338.671 19.4545H330.148ZM350.167 9.08523V1.27273H404.713V9.08523H381.844V74H373.037V9.08523H350.167ZM412.792 74H403.559L430.263 1.27273H439.354L466.059 74H456.826L435.093 12.7784H434.525L412.792 74ZM416.201 45.5909H453.417V53.4034H416.201V45.5909ZM477.387 74V1.27273H501.961C507.643 1.27273 512.306 2.24337 515.952 4.18466C519.598 6.10227 522.297 8.74195 524.049 12.1037C525.801 15.4654 526.677 19.2888 526.677 23.5739C526.677 27.8589 525.801 31.6586 524.049 34.973C522.297 38.2874 519.61 40.8916 515.988 42.7855C512.366 44.6558 507.737 45.5909 502.103 45.5909H482.216V37.6364H501.819C505.701 37.6364 508.826 37.0682 511.194 35.9318C513.585 34.7955 515.313 33.1856 516.378 31.1023C517.467 28.9953 518.012 26.4858 518.012 23.5739C518.012 20.6619 517.467 18.1169 516.378 15.9389C515.289 13.7609 513.549 12.08 511.158 10.8963C508.767 9.68892 505.607 9.08523 501.677 9.08523H486.194V74H477.387ZM511.62 41.3295L529.518 74H519.29L501.677 41.3295H511.62ZM537.374 9.08523V1.27273H591.92V9.08523H569.051V74H560.244V9.08523H537.374ZM656.222 19.4545V26.5568H627.955V19.4545H656.222ZM636.194 6.38636H644.574V58.375C644.574 60.7424 644.918 62.518 645.604 63.7017C646.314 64.8617 647.214 65.643 648.303 66.0455C649.416 66.4242 650.588 66.6136 651.819 66.6136C652.742 66.6136 653.5 66.5663 654.091 66.4716C654.683 66.3532 655.157 66.2585 655.512 66.1875L657.216 73.7159C656.648 73.929 655.855 74.142 654.837 74.3551C653.819 74.5919 652.529 74.7102 650.966 74.7102C648.599 74.7102 646.279 74.2012 644.006 73.1832C641.757 72.1652 639.887 70.6146 638.395 68.5312C636.928 66.4479 636.194 63.8201 636.194 60.6477V6.38636ZM690.402 75.1364C685.478 75.1364 681.157 73.9645 677.44 71.6207C673.747 69.277 670.859 65.9981 668.775 61.7841C666.716 57.5701 665.686 52.6458 665.686 47.0114C665.686 41.3295 666.716 36.3698 668.775 32.1321C670.859 27.8944 673.747 24.6037 677.44 22.2599C681.157 19.9162 685.478 18.7443 690.402 18.7443C695.326 18.7443 699.635 19.9162 703.328 22.2599C707.045 24.6037 709.933 27.8944 711.993 32.1321C714.076 36.3698 715.118 41.3295 715.118 47.0114C715.118 52.6458 714.076 57.5701 711.993 61.7841C709.933 65.9981 707.045 69.277 703.328 71.6207C699.635 73.9645 695.326 75.1364 690.402 75.1364ZM690.402 67.608C694.142 67.608 697.22 66.6491 699.635 64.7315C702.05 62.8139 703.837 60.2926 704.997 57.1676C706.157 54.0426 706.737 50.6572 706.737 47.0114C706.737 43.3655 706.157 39.9683 704.997 36.8196C703.837 33.6709 702.05 31.1259 699.635 29.1847C697.22 27.2434 694.142 26.2727 690.402 26.2727C686.661 26.2727 683.584 27.2434 681.169 29.1847C678.754 31.1259 676.967 33.6709 675.807 36.8196C674.647 39.9683 674.067 43.3655 674.067 47.0114C674.067 50.6572 674.647 54.0426 675.807 57.1676C676.967 60.2926 678.754 62.8139 681.169 64.7315C683.584 66.6491 686.661 67.608 690.402 67.608ZM778.195 75.1364C773.081 75.1364 768.678 73.929 764.985 71.5142C761.291 69.0994 758.45 65.7732 756.462 61.5355C754.473 57.2978 753.479 52.4564 753.479 47.0114C753.479 41.4716 754.497 36.5829 756.533 32.3452C758.593 28.0838 761.457 24.7576 765.127 22.3665C768.82 19.9517 773.128 18.7443 778.053 18.7443C781.888 18.7443 785.344 19.4545 788.422 20.875C791.5 22.2955 794.021 24.2841 795.986 26.8409C797.951 29.3977 799.17 32.3807 799.644 35.7898H791.263C790.624 33.304 789.203 31.1023 787.002 29.1847C784.824 27.2434 781.888 26.2727 778.195 26.2727C774.928 26.2727 772.063 27.125 769.601 28.8295C767.163 30.5104 765.257 32.8897 763.884 35.9673C762.534 39.0213 761.86 42.608 761.86 46.7273C761.86 50.9413 762.522 54.6108 763.848 57.7358C765.198 60.8608 767.092 63.2874 769.53 65.0156C771.992 66.7438 774.88 67.608 778.195 67.608C780.373 67.608 782.35 67.2292 784.125 66.4716C785.901 65.714 787.404 64.625 788.635 63.2045C789.866 61.7841 790.742 60.0795 791.263 58.0909H799.644C799.17 61.3106 797.998 64.2107 796.128 66.7912C794.281 69.348 791.831 71.384 788.777 72.8991C785.747 74.3906 782.219 75.1364 778.195 75.1364ZM834.054 75.1364C829.13 75.1364 824.809 73.9645 821.093 71.6207C817.399 69.277 814.511 65.9981 812.428 61.7841C810.368 57.5701 809.338 52.6458 809.338 47.0114C809.338 41.3295 810.368 36.3698 812.428 32.1321C814.511 27.8944 817.399 24.6037 821.093 22.2599C824.809 19.9162 829.13 18.7443 834.054 18.7443C838.978 18.7443 843.287 19.9162 846.98 22.2599C850.697 24.6037 853.585 27.8944 855.645 32.1321C857.728 36.3698 858.77 41.3295 858.77 47.0114C858.77 52.6458 857.728 57.5701 855.645 61.7841C853.585 65.9981 850.697 69.277 846.98 71.6207C843.287 73.9645 838.978 75.1364 834.054 75.1364ZM834.054 67.608C837.795 67.608 840.872 66.6491 843.287 64.7315C845.702 62.8139 847.489 60.2926 848.649 57.1676C849.809 54.0426 850.389 50.6572 850.389 47.0114C850.389 43.3655 849.809 39.9683 848.649 36.8196C847.489 33.6709 845.702 31.1259 843.287 29.1847C840.872 27.2434 837.795 26.2727 834.054 26.2727C830.314 26.2727 827.236 27.2434 824.821 29.1847C822.406 31.1259 820.619 33.6709 819.459 36.8196C818.299 39.9683 817.719 43.3655 817.719 47.0114C817.719 50.6572 818.299 54.0426 819.459 57.1676C820.619 60.2926 822.406 62.8139 824.821 64.7315C827.236 66.6491 830.314 67.608 834.054 67.608ZM879.944 41.1875V74H871.563V19.4545H879.66V27.9773H880.37C881.648 25.2074 883.59 22.982 886.194 21.3011C888.798 19.5966 892.16 18.7443 896.279 18.7443C899.972 18.7443 903.204 19.5019 905.974 21.017C908.743 22.5085 910.898 24.7812 912.437 27.8352C913.975 30.8655 914.745 34.7008 914.745 39.3409V74H906.364V39.9091C906.364 35.6241 905.251 32.286 903.026 29.8949C900.801 27.4801 897.747 26.2727 893.864 26.2727C891.189 26.2727 888.798 26.8527 886.691 28.0128C884.608 29.1728 882.962 30.8655 881.755 33.0909C880.547 35.3163 879.944 38.0152 879.944 41.1875ZM938.44 41.1875V74H930.059V19.4545H938.156V27.9773H938.866C940.144 25.2074 942.086 22.982 944.69 21.3011C947.294 19.5966 950.656 18.7443 954.775 18.7443C958.468 18.7443 961.7 19.5019 964.47 21.017C967.24 22.5085 969.394 24.7812 970.933 27.8352C972.472 30.8655 973.241 34.7008 973.241 39.3409V74H964.86V39.9091C964.86 35.6241 963.748 32.286 961.522 29.8949C959.297 27.4801 956.243 26.2727 952.36 26.2727C949.685 26.2727 947.294 26.8527 945.187 28.0128C943.104 29.1728 941.458 30.8655 940.251 33.0909C939.044 35.3163 938.44 38.0152 938.44 41.1875ZM1011.42 75.1364C1006.17 75.1364 1001.64 73.9763 997.824 71.6562C994.036 69.3125 991.112 66.0455 989.052 61.8551C987.016 57.6411 985.998 52.7405 985.998 47.1534C985.998 41.5663 987.016 36.642 989.052 32.3807C991.112 28.0956 993.977 24.7576 997.646 22.3665C1001.34 19.9517 1005.65 18.7443 1010.57 18.7443C1013.41 18.7443 1016.22 19.2178 1018.99 20.1648C1021.76 21.1117 1024.28 22.6506 1026.55 24.7812C1028.83 26.8883 1030.64 29.6818 1031.99 33.1619C1033.34 36.642 1034.01 40.9271 1034.01 46.017V49.5682H991.964V42.3239H1025.49C1025.49 39.2462 1024.87 36.5 1023.64 34.0852C1022.43 31.6705 1020.7 29.7647 1018.46 28.3679C1016.23 26.9711 1013.6 26.2727 1010.57 26.2727C1007.23 26.2727 1004.35 27.1013 1001.91 28.7585C999.493 30.392 997.634 32.5227 996.332 35.1506C995.03 37.7784 994.379 40.5956 994.379 43.6023V48.4318C994.379 52.5511 995.089 56.0431 996.51 58.9077C997.954 61.7486 999.954 63.9148 1002.51 65.4062C1005.07 66.8741 1008.04 67.608 1011.42 67.608C1013.63 67.608 1015.61 67.3002 1017.39 66.6847C1019.19 66.0455 1020.74 65.0985 1022.04 63.8438C1023.34 62.5653 1024.35 60.9792 1025.06 59.0852L1033.16 61.358C1032.31 64.1042 1030.87 66.5189 1028.86 68.6023C1026.85 70.6619 1024.36 72.2718 1021.4 73.4318C1018.44 74.5682 1015.12 75.1364 1011.42 75.1364ZM1068.92 75.1364C1063.8 75.1364 1059.4 73.929 1055.71 71.5142C1052.01 69.0994 1049.17 65.7732 1047.18 61.5355C1045.2 57.2978 1044.2 52.4564 1044.2 47.0114C1044.2 41.4716 1045.22 36.5829 1047.26 32.3452C1049.32 28.0838 1052.18 24.7576 1055.85 22.3665C1059.54 19.9517 1063.85 18.7443 1068.78 18.7443C1072.61 18.7443 1076.07 19.4545 1079.14 20.875C1082.22 22.2955 1084.74 24.2841 1086.71 26.8409C1088.67 29.3977 1089.89 32.3807 1090.37 35.7898H1081.99C1081.35 33.304 1079.93 31.1023 1077.72 29.1847C1075.55 27.2434 1072.61 26.2727 1068.92 26.2727C1065.65 26.2727 1062.79 27.125 1060.32 28.8295C1057.89 30.5104 1055.98 32.8897 1054.61 35.9673C1053.26 39.0213 1052.58 42.608 1052.58 46.7273C1052.58 50.9413 1053.25 54.6108 1054.57 57.7358C1055.92 60.8608 1057.81 63.2874 1060.25 65.0156C1062.71 66.7438 1065.6 67.608 1068.92 67.608C1071.1 67.608 1073.07 67.2292 1074.85 66.4716C1076.62 65.714 1078.13 64.625 1079.36 63.2045C1080.59 61.7841 1081.46 60.0795 1081.99 58.0909H1090.37C1089.89 61.3106 1088.72 64.2107 1086.85 66.7912C1085 69.348 1082.55 71.384 1079.5 72.8991C1076.47 74.3906 1072.94 75.1364 1068.92 75.1364ZM1126.34 19.4545V26.5568H1098.07V19.4545H1126.34ZM1106.31 6.38636H1114.69V58.375C1114.69 60.7424 1115.03 62.518 1115.72 63.7017C1116.43 64.8617 1117.33 65.643 1118.42 66.0455C1119.53 66.4242 1120.7 66.6136 1121.94 66.6136C1122.86 66.6136 1123.62 66.5663 1124.21 66.4716C1124.8 66.3532 1125.27 66.2585 1125.63 66.1875L1127.33 73.7159C1126.77 73.929 1125.97 74.142 1124.95 74.3551C1123.94 74.5919 1122.65 74.7102 1121.08 74.7102C1118.72 74.7102 1116.4 74.2012 1114.12 73.1832C1111.87 72.1652 1110 70.6146 1108.51 68.5312C1107.04 66.4479 1106.31 63.8201 1106.31 60.6477V6.38636Z" fill="white"/>
</svg>
