<svg width="120" height="120" viewBox="0 0 120 120" fill="none" xmlns="http://www.w3.org/2000/svg">
<path d="M68.8027 13.7477C69.2861 12.9082 70.5613 13.1777 70.6637 14.141L74.1011 46.4817C74.1468 46.9125 74.4648 47.2648 74.8887 47.3544L106.709 54.0791C107.657 54.2795 107.794 55.5756 106.91 55.9706L77.2141 69.2336C76.8185 69.4102 76.5817 69.8215 76.6275 70.2523L80.0649 102.593C80.1672 103.556 78.9771 104.088 78.3281 103.369L56.5378 79.225C56.2476 78.9033 55.7832 78.8052 55.3876 78.9819L25.692 92.2448C24.8075 92.6399 23.9342 91.6723 24.4176 90.8328L40.6461 62.6481C40.8623 62.2727 40.8121 61.8008 40.5219 61.4792L18.7316 37.3354C18.0825 36.6162 18.7329 35.4867 19.6807 35.687L51.5008 42.4117C51.9246 42.5013 52.358 42.3077 52.5742 41.9323L68.8027 13.7477Z" fill="#4D0072"/>
<path d="M65.2137 27.3983C66.1804 25.7193 68.7309 26.2583 68.9357 28.1849L71.1263 48.7955C71.2179 49.6571 71.8538 50.3618 72.7016 50.5409L92.9803 54.8266C94.8759 55.2272 95.1514 57.8194 93.3824 58.6095L74.4575 67.0619C73.6664 67.4152 73.1927 68.2378 73.2843 69.0994L75.4749 89.71C75.6797 91.6366 73.2995 92.6997 72.0014 91.2614L58.1145 75.8747C57.534 75.2314 56.6053 75.0352 55.8142 75.3885L36.8893 83.8409C35.1202 84.631 33.3737 82.6958 34.3404 81.0168L44.6828 63.0549C45.1152 62.304 45.0148 61.3601 44.4343 60.7169L30.5475 45.3302C29.2494 43.8919 30.5502 41.6328 32.4457 42.0334L52.7245 46.319C53.5723 46.4982 54.4389 46.1111 54.8713 45.3602L65.2137 27.3983Z" fill="#D479FF"/>
</svg>
