<svg width="159" height="163" viewBox="0 0 159 163" fill="none" xmlns="http://www.w3.org/2000/svg">
<mask id="path-1-outside-1_87_6" maskUnits="userSpaceOnUse" x="28" y="36" width="99" height="83" fill="black">
<rect fill="white" x="28" y="36" width="99" height="83"/>
<path d="M33.3263 114V41.2727H57.9002C63.6057 41.2727 68.2695 42.3026 71.8917 44.3622C75.5375 46.3982 78.2364 49.1562 79.9883 52.6364C81.7402 56.1165 82.6161 59.9991 82.6161 64.2841C82.6161 68.5691 81.7402 72.4635 79.9883 75.9673C78.2601 79.4711 75.5849 82.2647 71.9627 84.348C68.3406 86.4077 63.7004 87.4375 58.0423 87.4375H40.4286V79.625H57.7582C61.6644 79.625 64.8013 78.9503 67.1687 77.6009C69.5361 76.2514 71.2525 74.4285 72.3178 72.1321C73.4068 69.812 73.9513 67.196 73.9513 64.2841C73.9513 61.3722 73.4068 58.768 72.3178 56.4716C71.2525 54.1752 69.5243 52.3759 67.1332 51.0739C64.7421 49.7481 61.5697 49.0852 57.6161 49.0852H42.1332V114H33.3263ZM121.093 41.2727V114H112.286V50.5057H111.86L94.104 62.2955V53.3466L112.286 41.2727H121.093Z"/>
</mask>
<path d="M33.3263 114V41.2727H57.9002C63.6057 41.2727 68.2695 42.3026 71.8917 44.3622C75.5375 46.3982 78.2364 49.1562 79.9883 52.6364C81.7402 56.1165 82.6161 59.9991 82.6161 64.2841C82.6161 68.5691 81.7402 72.4635 79.9883 75.9673C78.2601 79.4711 75.5849 82.2647 71.9627 84.348C68.3406 86.4077 63.7004 87.4375 58.0423 87.4375H40.4286V79.625H57.7582C61.6644 79.625 64.8013 78.9503 67.1687 77.6009C69.5361 76.2514 71.2525 74.4285 72.3178 72.1321C73.4068 69.812 73.9513 67.196 73.9513 64.2841C73.9513 61.3722 73.4068 58.768 72.3178 56.4716C71.2525 54.1752 69.5243 52.3759 67.1332 51.0739C64.7421 49.7481 61.5697 49.0852 57.6161 49.0852H42.1332V114H33.3263ZM121.093 41.2727V114H112.286V50.5057H111.86L94.104 62.2955V53.3466L112.286 41.2727H121.093Z" fill="#BB2929"/>
<path d="M33.3263 114H28.3263V119H33.3263V114ZM33.3263 41.2727V36.2727H28.3263V41.2727H33.3263ZM71.8917 44.3622L69.4202 48.7087L69.437 48.7182L69.4539 48.7276L71.8917 44.3622ZM79.9883 52.6364L75.5222 54.8846L75.5222 54.8846L79.9883 52.6364ZM79.9883 75.9673L75.5161 73.7313L75.5101 73.7434L75.5041 73.7555L79.9883 75.9673ZM71.9627 84.348L74.4342 88.6945L74.4449 88.6884L74.4556 88.6822L71.9627 84.348ZM40.4286 87.4375H35.4286V92.4375H40.4286V87.4375ZM40.4286 79.625V74.625H35.4286V79.625H40.4286ZM67.1687 77.6009L64.6927 73.257L64.6927 73.257L67.1687 77.6009ZM72.3178 72.1321L67.7916 70.0076L67.7869 70.0177L67.7821 70.0279L72.3178 72.1321ZM72.3178 56.4716L67.7821 58.5758L67.791 58.5949L67.8001 58.614L72.3178 56.4716ZM67.1332 51.0739L64.7086 55.4467L64.7253 55.4559L64.742 55.465L67.1332 51.0739ZM42.1332 49.0852V44.0852H37.1332V49.0852H42.1332ZM42.1332 114V119H47.1332V114H42.1332ZM38.3263 114V41.2727H28.3263V114H38.3263ZM33.3263 46.2727H57.9002V36.2727H33.3263V46.2727ZM57.9002 46.2727C63.0452 46.2727 66.7789 47.2068 69.4202 48.7087L74.3632 40.0158C69.7601 37.3983 64.1662 36.2727 57.9002 36.2727V46.2727ZM69.4539 48.7276C72.293 50.3132 74.2524 52.362 75.5222 54.8846L84.4543 50.3882C82.2204 45.9505 78.782 42.4832 74.3295 39.9968L69.4539 48.7276ZM75.5222 54.8846C76.8891 57.5998 77.6161 60.7007 77.6161 64.2841H87.6161C87.6161 59.2974 86.5913 54.6331 84.4543 50.3881L75.5222 54.8846ZM77.6161 64.2841C77.6161 67.867 76.8892 70.9851 75.5161 73.7313L84.4604 78.2034C86.5911 73.942 87.6161 69.2712 87.6161 64.2841H77.6161ZM75.5041 73.7555C74.2455 76.3072 72.2952 78.3887 69.4698 80.0138L74.4556 88.6822C78.8745 86.1406 82.2746 82.635 84.4725 78.1791L75.5041 73.7555ZM69.4912 80.0016C66.8445 81.5065 63.1314 82.4375 58.0423 82.4375V92.4375C64.2694 92.4375 69.8366 91.3088 74.4342 88.6945L69.4912 80.0016ZM58.0423 82.4375H40.4286V92.4375H58.0423V82.4375ZM45.4286 87.4375V79.625H35.4286V87.4375H45.4286ZM40.4286 84.625H57.7582V74.625H40.4286V84.625ZM57.7582 84.625C62.1786 84.625 66.2655 83.8709 69.6447 81.9447L64.6927 73.257C63.337 74.0297 61.1502 74.625 57.7582 74.625V84.625ZM69.6447 81.9447C72.8419 80.1223 75.317 77.5484 76.8535 74.2363L67.7821 70.0279C67.188 71.3086 66.2303 72.3805 64.6927 73.257L69.6447 81.9447ZM76.844 74.2566C78.285 71.1867 78.9513 67.8302 78.9513 64.2841H68.9513C68.9513 66.5618 68.5287 68.4374 67.7916 70.0076L76.844 74.2566ZM78.9513 64.2841C78.9513 60.7391 78.2854 57.3863 76.8356 54.3292L67.8001 58.614C68.5283 60.1497 68.9513 62.0052 68.9513 64.2841H78.9513ZM76.8535 54.3674C75.3022 51.0234 72.7816 48.4565 69.5244 46.6827L64.742 55.465C66.2669 56.2954 67.2028 57.327 67.7821 58.5758L76.8535 54.3674ZM69.5577 46.701C66.1668 44.8209 62.064 44.0852 57.6161 44.0852V54.0852C61.0755 54.0852 63.3173 54.6753 64.7086 55.4467L69.5577 46.701ZM57.6161 44.0852H42.1332V54.0852H57.6161V44.0852ZM37.1332 49.0852V114H47.1332V49.0852H37.1332ZM42.1332 109H33.3263V119H42.1332V109ZM121.093 41.2727H126.093V36.2727H121.093V41.2727ZM121.093 114V119H126.093V114H121.093ZM112.286 114H107.286V119H112.286V114ZM112.286 50.5057H117.286V45.5057H112.286V50.5057ZM111.86 50.5057V45.5057H110.351L109.094 46.3403L111.86 50.5057ZM94.104 62.2955H89.104V71.6173L96.8699 66.4608L94.104 62.2955ZM94.104 53.3466L91.3381 49.1813L89.104 50.6649V53.3466H94.104ZM112.286 41.2727V36.2727H110.777L109.52 37.1075L112.286 41.2727ZM116.093 41.2727V114H126.093V41.2727H116.093ZM121.093 109H112.286V119H121.093V109ZM117.286 114V50.5057H107.286V114H117.286ZM112.286 45.5057H111.86V55.5057H112.286V45.5057ZM109.094 46.3403L91.3382 58.1301L96.8699 66.4608L114.626 54.6711L109.094 46.3403ZM99.104 62.2955V53.3466H89.104V62.2955H99.104ZM96.87 57.5118L115.052 45.438L109.52 37.1075L91.3381 49.1813L96.87 57.5118ZM112.286 46.2727H121.093V36.2727H112.286V46.2727Z" fill="black" mask="url(#path-1-outside-1_87_6)"/>
<path d="M102.186 131.75L79 159.131L55.814 131.75H102.186Z" fill="#BB2929" stroke="black" stroke-width="5"/>
</svg>
