<svg width="159" height="163" viewBox="0 0 159 163" fill="none" xmlns="http://www.w3.org/2000/svg">
<mask id="path-1-outside-1_87_7" maskUnits="userSpaceOnUse" x="21" y="35" width="119" height="84" fill="black">
<rect fill="white" x="21" y="35" width="119" height="84"/>
<path d="M26.2951 114V41.2727H50.869C56.5745 41.2727 61.2383 42.3026 64.8604 44.3622C68.5063 46.3982 71.2051 49.1562 72.957 52.6364C74.7089 56.1165 75.5849 59.9991 75.5849 64.2841C75.5849 68.5691 74.7089 72.4635 72.957 75.9673C71.2288 79.4711 68.5536 82.2647 64.9315 84.348C61.3093 86.4077 56.6692 87.4375 51.011 87.4375H33.3974V79.625H50.7269C54.6332 79.625 57.77 78.9503 60.1374 77.6009C62.5049 76.2514 64.2212 74.4285 65.2866 72.1321C66.3756 69.812 66.9201 67.196 66.9201 64.2841C66.9201 61.3722 66.3756 58.768 65.2866 56.4716C64.2212 54.1752 62.493 52.3759 60.1019 51.0739C57.7108 49.7481 54.5385 49.0852 50.5849 49.0852H35.1019V114H26.2951ZM88.4933 114V107.608L112.499 81.3295C115.316 78.2519 117.636 75.5767 119.459 73.304C121.282 71.0076 122.632 68.8532 123.507 66.8409C124.407 64.8049 124.857 62.6742 124.857 60.4489C124.857 57.892 124.241 55.6785 123.01 53.8082C121.803 51.938 120.146 50.4938 118.039 49.4759C115.932 48.4579 113.564 47.9489 110.936 47.9489C108.143 47.9489 105.704 48.5289 103.621 49.6889C101.561 50.8253 99.9634 52.4233 98.8271 54.483C97.7144 56.5426 97.158 58.9574 97.158 61.7273H88.7773C88.7773 57.4659 89.7598 53.7254 91.7248 50.5057C93.6897 47.286 96.3649 44.7765 99.7504 42.9773C103.159 41.178 106.983 40.2784 111.221 40.2784C115.482 40.2784 119.258 41.178 122.549 42.9773C125.839 44.7765 128.42 47.2031 130.29 50.2571C132.16 53.3111 133.096 56.7083 133.096 60.4489C133.096 63.1241 132.61 65.7401 131.64 68.2969C130.693 70.83 129.035 73.6591 126.668 76.7841C124.324 79.8854 121.069 83.6733 116.902 88.1477L100.567 105.619V106.188H134.374V114H88.4933Z"/>
</mask>
<path d="M26.2951 114V41.2727H50.869C56.5745 41.2727 61.2383 42.3026 64.8604 44.3622C68.5063 46.3982 71.2051 49.1562 72.957 52.6364C74.7089 56.1165 75.5849 59.9991 75.5849 64.2841C75.5849 68.5691 74.7089 72.4635 72.957 75.9673C71.2288 79.4711 68.5536 82.2647 64.9315 84.348C61.3093 86.4077 56.6692 87.4375 51.011 87.4375H33.3974V79.625H50.7269C54.6332 79.625 57.77 78.9503 60.1374 77.6009C62.5049 76.2514 64.2212 74.4285 65.2866 72.1321C66.3756 69.812 66.9201 67.196 66.9201 64.2841C66.9201 61.3722 66.3756 58.768 65.2866 56.4716C64.2212 54.1752 62.493 52.3759 60.1019 51.0739C57.7108 49.7481 54.5385 49.0852 50.5849 49.0852H35.1019V114H26.2951ZM88.4933 114V107.608L112.499 81.3295C115.316 78.2519 117.636 75.5767 119.459 73.304C121.282 71.0076 122.632 68.8532 123.507 66.8409C124.407 64.8049 124.857 62.6742 124.857 60.4489C124.857 57.892 124.241 55.6785 123.01 53.8082C121.803 51.938 120.146 50.4938 118.039 49.4759C115.932 48.4579 113.564 47.9489 110.936 47.9489C108.143 47.9489 105.704 48.5289 103.621 49.6889C101.561 50.8253 99.9634 52.4233 98.8271 54.483C97.7144 56.5426 97.158 58.9574 97.158 61.7273H88.7773C88.7773 57.4659 89.7598 53.7254 91.7248 50.5057C93.6897 47.286 96.3649 44.7765 99.7504 42.9773C103.159 41.178 106.983 40.2784 111.221 40.2784C115.482 40.2784 119.258 41.178 122.549 42.9773C125.839 44.7765 128.42 47.2031 130.29 50.2571C132.16 53.3111 133.096 56.7083 133.096 60.4489C133.096 63.1241 132.61 65.7401 131.64 68.2969C130.693 70.83 129.035 73.6591 126.668 76.7841C124.324 79.8854 121.069 83.6733 116.902 88.1477L100.567 105.619V106.188H134.374V114H88.4933Z" fill="#2963BB"/>
<path d="M26.2951 114H21.2951V119H26.2951V114ZM26.2951 41.2727V36.2727H21.2951V41.2727H26.2951ZM64.8604 44.3622L62.3889 48.7087L62.4057 48.7182L62.4226 48.7276L64.8604 44.3622ZM72.957 52.6364L68.491 54.8846L68.491 54.8846L72.957 52.6364ZM72.957 75.9673L68.4849 73.7313L68.4788 73.7434L68.4728 73.7555L72.957 75.9673ZM64.9315 84.348L67.403 88.6945L67.4137 88.6884L67.4244 88.6822L64.9315 84.348ZM33.3974 87.4375H28.3974V92.4375H33.3974V87.4375ZM33.3974 79.625V74.625H28.3974V79.625H33.3974ZM60.1374 77.6009L57.6614 73.257L57.6614 73.257L60.1374 77.6009ZM65.2866 72.1321L60.7604 70.0076L60.7556 70.0177L60.7509 70.0279L65.2866 72.1321ZM65.2866 56.4716L60.7509 58.5758L60.7598 58.5949L60.7688 58.614L65.2866 56.4716ZM60.1019 51.0739L57.6774 55.4467L57.694 55.4559L57.7107 55.465L60.1019 51.0739ZM35.1019 49.0852V44.0852H30.1019V49.0852H35.1019ZM35.1019 114V119H40.1019V114H35.1019ZM31.2951 114V41.2727H21.2951V114H31.2951ZM26.2951 46.2727H50.869V36.2727H26.2951V46.2727ZM50.869 46.2727C56.014 46.2727 59.7477 47.2068 62.3889 48.7087L67.332 40.0158C62.7289 37.3983 57.1349 36.2727 50.869 36.2727V46.2727ZM62.4226 48.7276C65.2618 50.3132 67.2211 52.362 68.491 54.8846L77.4231 50.3882C75.1891 45.9505 71.7508 42.4832 67.2983 39.9968L62.4226 48.7276ZM68.491 54.8846C69.8578 57.5998 70.5849 60.7007 70.5849 64.2841H80.5849C80.5849 59.2974 79.56 54.6331 77.4231 50.3881L68.491 54.8846ZM70.5849 64.2841C70.5849 67.867 69.858 70.9851 68.4849 73.7313L77.4292 78.2034C79.5599 73.942 80.5849 69.2712 80.5849 64.2841H70.5849ZM68.4728 73.7555C67.2142 76.3072 65.264 78.3887 62.4386 80.0138L67.4244 88.6822C71.8433 86.1406 75.2434 82.635 77.4412 78.1791L68.4728 73.7555ZM62.46 80.0016C59.8133 81.5065 56.1001 82.4375 51.011 82.4375V92.4375C57.2382 92.4375 62.8054 91.3088 67.403 88.6945L62.46 80.0016ZM51.011 82.4375H33.3974V92.4375H51.011V82.4375ZM38.3974 87.4375V79.625H28.3974V87.4375H38.3974ZM33.3974 84.625H50.7269V74.625H33.3974V84.625ZM50.7269 84.625C55.1473 84.625 59.2343 83.8709 62.6134 81.9447L57.6614 73.257C56.3057 74.0297 54.119 74.625 50.7269 74.625V84.625ZM62.6134 81.9447C65.8106 80.1223 68.2857 77.5484 69.8223 74.2363L60.7509 70.0279C60.1568 71.3086 59.1991 72.3805 57.6614 73.257L62.6134 81.9447ZM69.8128 74.2566C71.2538 71.1867 71.9201 67.8302 71.9201 64.2841H61.9201C61.9201 66.5618 61.4974 68.4374 60.7604 70.0076L69.8128 74.2566ZM71.9201 64.2841C71.9201 60.7391 71.2541 57.3863 69.8043 54.3292L60.7688 58.614C61.4971 60.1497 61.9201 62.0052 61.9201 64.2841H71.9201ZM69.8223 54.3674C68.2709 51.0234 65.7503 48.4565 62.4931 46.6827L57.7107 55.465C59.2357 56.2954 60.1716 57.327 60.7509 58.5758L69.8223 54.3674ZM62.5265 46.701C59.1356 44.8209 55.0327 44.0852 50.5849 44.0852V54.0852C54.0442 54.0852 56.2861 54.6753 57.6774 55.4467L62.5265 46.701ZM50.5849 44.0852H35.1019V54.0852H50.5849V44.0852ZM30.1019 49.0852V114H40.1019V49.0852H30.1019ZM35.1019 109H26.2951V119H35.1019V109ZM88.4933 114H83.4933V119H88.4933V114ZM88.4933 107.608L84.8017 104.236L83.4933 105.668V107.608H88.4933ZM112.499 81.3295L108.811 77.9535L108.807 77.9573L112.499 81.3295ZM119.459 73.304L123.36 76.4324L123.367 76.4226L123.375 76.4127L119.459 73.304ZM123.507 66.8409L118.934 64.8201L118.928 64.8327L118.923 64.8453L123.507 66.8409ZM123.01 53.8082L118.81 56.5201L118.822 56.5387L118.834 56.5573L123.01 53.8082ZM118.039 49.4759L120.214 44.9738L120.214 44.9738L118.039 49.4759ZM103.621 49.6889L106.036 54.0668L106.045 54.0621L106.054 54.0574L103.621 49.6889ZM98.8271 54.483L94.4492 52.0676L94.4385 52.0869L94.428 52.1064L98.8271 54.483ZM97.158 61.7273V66.7273H102.158V61.7273H97.158ZM88.7773 61.7273H83.7773V66.7273H88.7773V61.7273ZM91.7248 50.5057L95.9927 53.1104L95.9927 53.1104L91.7248 50.5057ZM99.7504 42.9773L97.4166 38.5553L97.4102 38.5587L97.4038 38.5621L99.7504 42.9773ZM122.549 42.9773L124.947 38.5902L124.947 38.5902L122.549 42.9773ZM130.29 50.2571L126.026 52.8684L130.29 50.2571ZM131.64 68.2969L126.965 66.5223L126.961 66.5342L126.956 66.5461L131.64 68.2969ZM126.668 76.7841L122.683 73.7648L122.679 73.7695L126.668 76.7841ZM116.902 88.1477L120.555 91.5625L120.561 91.5552L116.902 88.1477ZM100.567 105.619L96.9148 102.205L95.5671 103.646V105.619H100.567ZM100.567 106.188H95.5671V111.188H100.567V106.188ZM134.374 106.188H139.374V101.188H134.374V106.188ZM134.374 114V119H139.374V114H134.374ZM93.4933 114V107.608H83.4933V114H93.4933ZM92.1848 110.98L116.19 84.7018L108.807 77.9573L84.8017 104.236L92.1848 110.98ZM116.187 84.7056C119.049 81.5788 121.447 78.8174 123.36 76.4324L115.559 70.1755C113.826 72.336 111.583 74.925 108.811 77.9535L116.187 84.7056ZM123.375 76.4127C125.384 73.8821 126.996 71.355 128.092 68.8365L118.923 64.8453C118.267 66.3514 117.18 68.133 115.543 70.1953L123.375 76.4127ZM128.081 68.8617C129.262 66.1893 129.857 63.3704 129.857 60.4489H119.857C119.857 61.9781 119.552 63.4205 118.934 64.8201L128.081 68.8617ZM129.857 60.4489C129.857 57.0576 129.028 53.8572 127.187 51.0592L118.834 56.5573C119.454 57.4998 119.857 58.7265 119.857 60.4489H129.857ZM127.211 51.0964C125.48 48.4145 123.103 46.3698 120.214 44.9738L115.864 53.9779C117.188 54.6178 118.126 55.4615 118.81 56.5201L127.211 51.0964ZM120.214 44.9738C117.349 43.5898 114.224 42.9489 110.936 42.9489V52.9489C112.904 52.9489 114.514 53.326 115.864 53.9779L120.214 44.9738ZM110.936 42.9489C107.438 42.9489 104.134 43.6803 101.189 45.3205L106.054 54.0574C107.275 53.3775 108.847 52.9489 110.936 52.9489V42.9489ZM101.206 45.311C98.3198 46.9033 96.0414 49.1816 94.4492 52.0676L103.205 56.8983C103.885 55.6649 104.803 54.7473 106.036 54.0668L101.206 45.311ZM94.428 52.1064C92.8545 55.0191 92.158 58.2796 92.158 61.7273H102.158C102.158 59.6352 102.574 58.0661 103.226 56.8595L94.428 52.1064ZM97.158 56.7273H88.7773V66.7273H97.158V56.7273ZM93.7773 61.7273C93.7773 58.2628 94.5664 55.4475 95.9927 53.1104L87.4568 47.901C84.9532 52.0032 83.7773 56.6691 83.7773 61.7273H93.7773ZM95.9927 53.1104C97.483 50.6685 99.4889 48.7785 102.097 47.3924L97.4038 38.5621C93.241 40.7745 89.8965 43.9035 87.4568 47.901L95.9927 53.1104ZM102.084 47.3992C104.704 46.0163 107.714 45.2784 111.221 45.2784V35.2784C106.252 35.2784 101.614 36.3398 97.4166 38.5553L102.084 47.3992ZM111.221 45.2784C114.759 45.2784 117.69 46.0193 120.15 47.3643L124.947 38.5902C120.826 36.3367 116.205 35.2784 111.221 35.2784V45.2784ZM120.15 47.3643C122.712 48.7653 124.634 50.5948 126.026 52.8684L134.554 47.6458C132.206 43.8114 128.967 40.7877 124.947 38.5902L120.15 47.3643ZM126.026 52.8684C127.393 55.1005 128.096 57.587 128.096 60.4489H138.096C138.096 55.8297 136.928 51.5216 134.554 47.6458L126.026 52.8684ZM128.096 60.4489C128.096 62.504 127.725 64.5195 126.965 66.5223L136.314 70.0714C137.495 66.9606 138.096 63.7441 138.096 60.4489H128.096ZM126.956 66.5461C126.237 68.4708 124.876 70.8691 122.683 73.7648L130.653 79.8034C133.195 76.4491 135.149 73.1892 136.323 70.0477L126.956 66.5461ZM122.679 73.7695C120.479 76.6802 117.351 80.329 113.243 84.7403L120.561 91.5552C124.787 87.0176 128.169 83.0906 130.657 79.7987L122.679 73.7695ZM113.25 84.733L96.9148 102.205L104.219 109.034L120.555 91.5625L113.25 84.733ZM95.5671 105.619V106.188H105.567V105.619H95.5671ZM100.567 111.188H134.374V101.188H100.567V111.188ZM129.374 106.188V114H139.374V106.188H129.374ZM134.374 109H88.4933V119H134.374V109Z" fill="black" mask="url(#path-1-outside-1_87_7)"/>
<path d="M102.186 131.75L79 159.131L55.814 131.75H102.186Z" fill="#2963BB" stroke="black" stroke-width="5"/>
</svg>
